<?xml version="1.0" encoding="UTF-8" standalone="no"?>
<svg
   xmlns:serif="http://www.serif.com/"
   xmlns:dc="http://purl.org/dc/elements/1.1/"
   xmlns:cc="http://creativecommons.org/ns#"
   xmlns:rdf="http://www.w3.org/1999/02/22-rdf-syntax-ns#"
   xmlns:svg="http://www.w3.org/2000/svg"
   xmlns="http://www.w3.org/2000/svg"
   xmlns:sodipodi="http://sodipodi.sourceforge.net/DTD/sodipodi-0.dtd"
   xmlns:inkscape="http://www.inkscape.org/namespaces/inkscape"
   width="100%"
   height="100%"
   viewBox="0 0 6048 6048"
   version="1.1"
   xml:space="preserve"
   style="fill-rule:evenodd;clip-rule:evenodd;stroke-linecap:round;stroke-linejoin:round;stroke-miterlimit:1.5;"
   id="svg143"
   sodipodi:docname="logo.svg"
   inkscape:version="0.92.5 (2060ec1f9f, 2020-04-08)"><metadata
   id="metadata149"><rdf:RDF><cc:Work
       rdf:about=""><dc:format>image/svg+xml</dc:format><dc:type
         rdf:resource="http://purl.org/dc/dcmitype/StillImage" /></cc:Work></rdf:RDF></metadata><defs
   id="defs147" /><sodipodi:namedview
   pagecolor="#ffffff"
   bordercolor="#666666"
   borderopacity="1"
   objecttolerance="10"
   gridtolerance="10"
   guidetolerance="10"
   inkscape:pageopacity="0"
   inkscape:pageshadow="2"
   inkscape:window-width="1848"
   inkscape:window-height="1016"
   id="namedview145"
   showgrid="false"
   inkscape:zoom="0.078042328"
   inkscape:cx="3267.7625"
   inkscape:cy="4674.0114"
   inkscape:window-x="72"
   inkscape:window-y="27"
   inkscape:window-maximized="1"
   inkscape:current-layer="g141" />
    <g
   transform="matrix(1.10629,0,0,1.10629,-413.136,-297.086)"
   id="g141">
        <g
   transform="matrix(1.39045,0,0,1.39045,-1790.74,-1758.88)"
   id="g4">
            <circle
   cx="3522.1001"
   cy="3423.74"
   r="1850.6"
   style="fill:#ffffff"
   id="circle2" />
        </g>
        <g
   transform="matrix(1.11552,0,0,0.272511,198.8,1509.06)"
   id="g8">
            <ellipse
   cx="2606.6399"
   cy="2864"
   rx="1609.71"
   ry="392.18399"
   style="fill:#798D8F"
   id="ellipse6" />
        </g>
        <g
   transform="matrix(1.11552,0,0,0.272511,198.8,1574.53)"
   id="g12">
            <ellipse
   cx="2606.6399"
   cy="2864"
   rx="1609.71"
   ry="392.18399"
   style="fill:#1b1b1b;stroke:#1b1b1b;stroke-width:1.11000001px"
   id="ellipse10" />
        </g>
        <g
   id="_-BRAIN"
   serif:id="´BRAIN">
        </g>
        <g
   id="brain-3"
   serif:id="brain 3"
   transform="matrix(0.77261,0,0,0.870203,1668.07,-889.612)">
            <path
   d="m 1386.1,2689.17 c 93.64,-69.61 274.69,-120.97 475.75,-120.97 201.06,0 382.11,51.36 475.76,120.97 132.97,-28.87 328.05,-12.63 502.17,54.81 174.13,67.44 292.64,172.65 321.85,264.34 136.68,19.6 293.52,99.1 394.05,215.91 100.53,116.81 124.74,247.68 81.71,336.88 103.75,62.82 180.33,184.28 180.33,319.15 0,134.88 -76.58,256.34 -180.33,319.16 43.03,89.2 18.82,220.07 -81.71,336.88 -100.53,116.81 -257.37,196.31 -394.05,215.91 -29.21,91.69 -147.72,196.9 -321.85,264.34 -174.12,67.44 -369.2,83.68 -502.17,54.81 -93.65,69.61 -274.7,120.98 -475.76,120.98 -201.06,0 -382.11,-51.37 -475.75,-120.98 -132.98,28.87 -328.06,12.63 -502.18,-54.81 C 709.798,4949.11 591.288,4843.9 562.071,4752.21 425.395,4732.61 268.552,4653.11 168.023,4536.3 67.494,4419.49 43.283,4288.62 86.319,4199.42 -17.438,4136.6 -94.013,4015.14 -94.013,3880.26 c 0,-134.87 76.575,-256.33 180.332,-319.15 -43.036,-89.2 -18.825,-220.07 81.704,-336.88 100.529,-116.81 257.372,-196.31 394.048,-215.91 29.217,-91.69 147.727,-196.9 321.849,-264.34 174.12,-67.44 369.2,-83.68 502.18,-54.81 z"
   style="fill:#F05858"
   id="path15"
   inkscape:connector-curvature="0" />
            <clipPath
   id="_clip1">
                <path
   d="m 1386.1,2689.17 c 93.64,-69.61 274.69,-120.97 475.75,-120.97 201.06,0 382.11,51.36 475.76,120.97 132.97,-28.87 328.05,-12.63 502.17,54.81 174.13,67.44 292.64,172.65 321.85,264.34 136.68,19.6 293.52,99.1 394.05,215.91 100.53,116.81 124.74,247.68 81.71,336.88 103.75,62.82 180.33,184.28 180.33,319.15 0,134.88 -76.58,256.34 -180.33,319.16 43.03,89.2 18.82,220.07 -81.71,336.88 -100.53,116.81 -257.37,196.31 -394.05,215.91 -29.21,91.69 -147.72,196.9 -321.85,264.34 -174.12,67.44 -369.2,83.68 -502.17,54.81 -93.65,69.61 -274.7,120.98 -475.76,120.98 -201.06,0 -382.11,-51.37 -475.75,-120.98 -132.98,28.87 -328.06,12.63 -502.18,-54.81 C 709.798,4949.11 591.288,4843.9 562.071,4752.21 425.395,4732.61 268.552,4653.11 168.023,4536.3 67.494,4419.49 43.283,4288.62 86.319,4199.42 -17.438,4136.6 -94.013,4015.14 -94.013,3880.26 c 0,-134.87 76.575,-256.33 180.332,-319.15 -43.036,-89.2 -18.825,-220.07 81.704,-336.88 100.529,-116.81 257.372,-196.31 394.048,-215.91 29.217,-91.69 147.727,-196.9 321.849,-264.34 174.12,-67.44 369.2,-83.68 502.18,-54.81 z"
   id="path17"
   inkscape:connector-curvature="0" />
            </clipPath>
            <g
   clip-path="url(#_clip1)"
   id="g63">
                <g
   id="brain-zeugs"
   serif:id="brain zeugs"
   transform="matrix(1.29431,0,0,1.05124,-2097.36,947.293)">
                    <g
   transform="matrix(0.99996,0.0104143,-0.00896594,1.16149,-492.823,71.8338)"
   id="g22">
                        <path
   d="M 3540.94,1511.21 C 3419.29,1310.4 3134.49,1288.9 3134.49,1288.9"
   style="fill:none;stroke:#ffffff;stroke-width:69.5px"
   id="path20"
   inkscape:connector-curvature="0" />
                    </g>
                    <g
   transform="matrix(0.804043,-0.690617,0.594571,0.933927,382.471,2991.25)"
   id="g26">
                        <path
   d="m 3611.61,1584.9 c -42.34,-109.22 -228.45,-302.81 -500.38,-236.98"
   style="fill:none;stroke:#ffffff;stroke-width:71.65000153px"
   id="path24"
   inkscape:connector-curvature="0" />
                    </g>
                    <g
   transform="matrix(0.861104,-0.0511101,0.0338857,0.770252,680.854,1240.95)"
   id="g30">
                        <path
   d="m 3611.61,1584.9 c -42.34,-109.22 -228.45,-302.81 -500.38,-236.98"
   style="fill:none;stroke:#ffffff;stroke-width:91.34999847px"
   id="path28"
   inkscape:connector-curvature="0" />
                    </g>
                    <g
   transform="matrix(0.922529,-0.767157,0.439409,0.712905,-419.239,4214.35)"
   id="g34">
                        <path
   d="m 3861.67,1887.85 c -21,-194.58 -313.7,-638.01 -604.17,-458.5"
   style="fill:none;stroke:#ffffff;stroke-width:74.44999695px"
   id="path32"
   inkscape:connector-curvature="0" />
                    </g>
                    <g
   transform="matrix(0.63431,-0.570312,0.553505,0.830572,23.2137,2677.69)"
   id="g38">
                        <path
   d="m 3624.45,1593.72 c -9.6,-21.74 -25.08,-45.1 -45.55,-68.48 -87.95,-100.5 -267.86,-201.5 -467.67,-177.32"
   style="fill:none;stroke:#ffffff;stroke-width:83.76000214px"
   id="path36"
   inkscape:connector-curvature="0" />
                    </g>
                    <g
   transform="matrix(0.63431,-0.570312,0.553505,0.830572,-920.752,2703.28)"
   id="g42">
                        <path
   d="m 3624.45,1593.72 c -50.86,-115.21 -266.92,-275.61 -513.22,-245.8"
   style="fill:none;stroke:#ffffff;stroke-width:83.76000214px"
   id="path40"
   inkscape:connector-curvature="0" />
                    </g>
                    <g
   transform="matrix(0.586417,-0.635715,0.61698,0.767861,586.07,2702.6)"
   id="g46">
                        <path
   d="M 3669.22,1603.21 C 3528.51,1439.97 3325.57,1303.76 3111.23,1347.92"
   style="fill:none;stroke:#ffffff;stroke-width:83.88999939px"
   id="path44"
   inkscape:connector-curvature="0" />
                    </g>
                    <g
   transform="matrix(0.993568,0.131529,-0.0974887,0.993568,260.693,-289.2)"
   id="g60">
                        <g
   transform="matrix(0.857159,-0.598252,0.515051,0.995623,-1197.96,3075.01)"
   id="g50">
                            <path
   d="m 3592.04,1639.84 c -75.57,-290.69 -423.07,-397.53 -623.82,-329.75"
   style="fill:none;stroke:#ffffff;stroke-width:71.19000244px"
   id="path48"
   inkscape:connector-curvature="0" />
                        </g>
                        <g
   transform="matrix(0.548212,-0.0708058,0.0455916,0.476246,153.723,1954.3)"
   id="g54">
                            <path
   d="M 3669.11,1551.91 C 3585.57,1322.8 3246.9,1272.15 2998.14,1401.31"
   style="fill:none;stroke:#ffffff;stroke-width:143.99000549px"
   id="path52"
   inkscape:connector-curvature="0" />
                        </g>
                        <g
   transform="matrix(0.18581,-0.603248,0.388429,0.161418,1512.16,4090.97)"
   id="g58">
                            <path
   d="m 3563.41,1649.62 c -59.69,-352.22 -296.23,-604.69 -495.2,-459.09"
   style="fill:none;stroke:#ffffff;stroke-width:145.38000488px"
   id="path56"
   inkscape:connector-curvature="0" />
                        </g>
                    </g>
                </g>
            </g>
        </g>
        <g
   id="BASE"
   transform="translate(82.9336,-193.512)">
            <g
   transform="matrix(0.905085,0,0,0.714244,230.92,570.381)"
   id="g68">
                <path
   d="m 4279.95,4515.79 c 0,-396.18 -253.83,-717.83 -566.47,-717.83 H 2460.97 c -312.64,0 -566.47,321.65 -566.47,717.83 v 553.57 c 0,396.18 253.83,717.83 566.47,717.83 h 1252.51 c 312.64,0 566.47,-321.65 566.47,-717.83 z"
   style="fill:#798D8F"
   id="path66"
   inkscape:connector-curvature="0" />
            </g>
            <g
   transform="matrix(0.317132,0,0,0.885912,2046.06,-81.6083)"
   id="g72">
                <path
   d="m 4279.95,4224.93 c 0,-235.65 -534.44,-426.97 -1192.73,-426.97 -658.28,0 -1192.72,191.32 -1192.72,426.97 v 1135.3 c 0,235.64 534.44,426.96 1192.72,426.96 658.29,0 1192.73,-191.32 1192.73,-426.96 z"
   style="fill:#798D8F"
   id="path70"
   inkscape:connector-curvature="0" />
            </g>
            <g
   transform="matrix(0.317132,0,0,0.885912,1344.8,-81.6083)"
   id="g76">
                <path
   d="m 4279.95,4224.93 c 0,-235.65 -534.44,-426.97 -1192.73,-426.97 -658.28,0 -1192.72,191.32 -1192.72,426.97 v 1135.3 c 0,235.64 534.44,426.96 1192.72,426.96 658.29,0 1192.73,-191.32 1192.73,-426.96 z"
   style="fill:#798D8F"
   id="path74"
   inkscape:connector-curvature="0" />
            </g>
            <g
   transform="matrix(0.317132,0,0,0.885912,2747.33,-81.6083)"
   id="g80">
                <path
   d="m 4279.95,4224.93 c 0,-235.65 -534.44,-426.97 -1192.73,-426.97 -658.28,0 -1192.72,191.32 -1192.72,426.97 v 1135.3 c 0,235.64 534.44,426.96 1192.72,426.96 658.29,0 1192.73,-191.32 1192.73,-426.96 z"
   style="fill:#798D8F"
   id="path78"
   inkscape:connector-curvature="0" />
            </g>
            <path
   d="m 1226.86,2482.03 c 487.45,151.33 1113.86,242.4 1796.76,242.4 682.9,0 1309.31,-91.07 1796.77,-242.4 35.18,142.47 53.83,291.35 53.83,444.56 0,1021.37 -827.72,1717.21 -1849.1,1717.21 -1021.37,0 -1852.1,-695.84 -1852.1,-1717.21 0,-153.21 18.66,-302.09 53.84,-444.56 z"
   style="fill:#798D8F"
   id="path82"
   inkscape:connector-curvature="0" />
        </g>
        <g
   id="NOSE"
   transform="matrix(-0.309868,0,0,-0.526995,3302.24,6762.95)">
            <path
   d="m 631.513,5082.76 c 88.824,-168.59 266.472,-168.59 355.297,-93.79 88.83,74.79 88.83,224.39 0,373.98 -62.178,112.2 -222.061,224.4 -355.297,299.2 -133.237,-74.8 -293.12,-187 -355.297,-299.2 -88.824,-149.59 -88.824,-299.19 0,-373.98 88.825,-74.8 266.473,-74.8 355.297,93.79 z"
   style="fill:#1b1b1b"
   id="path85"
   inkscape:connector-curvature="0" />
            <path
   d="m 631.513,4960.04 c -47.338,-37.53 -100.988,-58.31 -151.318,-67.17 -103.705,-18.25 -210.127,6.97 -279.264,65.19 -100.305,84.46 -111.787,253.26 -11.705,422.19 66.859,120.09 236.234,240.87 378.879,320.95 l 63.408,35.59 63.408,-35.59 c 142.644,-80.08 312.019,-200.86 378.889,-320.98 100.07,-168.92 88.59,-337.7 -11.71,-422.16 -69.142,-58.22 -175.564,-83.44 -279.269,-65.19 -50.33,8.86 -103.98,29.64 -151.318,67.17 z m 0,122.72 c 88.824,-168.59 266.472,-168.59 355.297,-93.79 88.83,74.79 88.83,224.39 0,373.98 -62.178,112.2 -222.061,224.4 -355.297,299.2 -133.237,-74.8 -293.12,-187 -355.297,-299.2 -88.824,-149.59 -88.824,-299.19 0,-373.98 88.825,-74.8 266.473,-74.8 355.297,93.79 z"
   style="fill:#1b1b1b"
   id="path87"
   inkscape:connector-curvature="0" />
        </g>
        <g
   id="FACE"
   transform="matrix(1.06588,0,0,1.33128,-118.488,-1535.55)">
            <g
   id="AUGE-rechts"
   serif:id="AUGE rechts"
   transform="matrix(0.887595,0,0,0.717624,1797.71,1240.76)">
                <ellipse
   cx="2093.52"
   cy="3540.8101"
   rx="432.61499"
   ry="428.57199"
   style="fill:#1b1b1b"
   id="ellipse90" />
                <clipPath
   id="_clip2">
                    <ellipse
   cx="2093.52"
   cy="3540.8101"
   rx="432.61499"
   ry="428.57199"
   id="ellipse92" />
                </clipPath>
                
                <ellipse
   cx="2093.52"
   cy="3540.8101"
   rx="432.61499"
   ry="428.57199"
   style="fill:none;stroke:#1b1b1b;stroke-width:40.79999924px"
   id="ellipse101" />
            </g>
            <g
   id="AUGE-links"
   serif:id="AUGE links"
   transform="matrix(0.887595,0,0,0.717624,537.29,1240.76)">
                <ellipse
   cx="2093.52"
   cy="3540.8101"
   rx="432.61499"
   ry="428.57199"
   style="fill:#1b1b1b"
   id="ellipse104" />
                <clipPath
   id="_clip3">
                    <ellipse
   cx="2093.52"
   cy="3540.8101"
   rx="432.61499"
   ry="428.57199"
   id="ellipse106" />
                </clipPath>
                
                <ellipse
   cx="2093.52"
   cy="3540.8101"
   rx="432.61499"
   ry="428.57199"
   style="fill:none;stroke:#1b1b1b;stroke-width:40.95000076px"
   id="ellipse115" />
            </g>
            <g
   id="NOSE1"
   serif:id="NOSE"
   transform="matrix(-0.290715,0,0,-0.395857,3209.29,6233.49)">
                <path
   d="m 631.513,5082.76 c 88.824,-168.59 266.472,-168.59 355.297,-93.79 88.83,74.79 88.83,224.39 0,373.98 -62.178,112.2 -222.061,224.4 -355.297,299.2 -133.237,-74.8 -293.12,-187 -355.297,-299.2 -88.824,-149.59 -88.824,-299.19 0,-373.98 88.825,-74.8 266.473,-74.8 355.297,93.79 z"
   style="fill:#1b1b1b"
   id="path118"
   inkscape:connector-curvature="0" />
                <clipPath
   id="_clip4">
                    <path
   d="m 631.513,5082.76 c 88.824,-168.59 266.472,-168.59 355.297,-93.79 88.83,74.79 88.83,224.39 0,373.98 -62.178,112.2 -222.061,224.4 -355.297,299.2 -133.237,-74.8 -293.12,-187 -355.297,-299.2 -88.824,-149.59 -88.824,-299.19 0,-373.98 88.825,-74.8 266.473,-74.8 355.297,93.79 z"
   id="path120"
   inkscape:connector-curvature="0" />
                </clipPath>
                
                <path
   d="m 631.513,4960.04 c -47.338,-37.53 -100.988,-58.31 -151.318,-67.17 -103.705,-18.25 -210.127,6.97 -279.264,65.19 -100.305,84.46 -111.787,253.26 -11.705,422.19 66.859,120.09 236.234,240.87 378.879,320.95 l 63.408,35.59 63.408,-35.59 c 142.644,-80.08 312.019,-200.86 378.889,-320.98 100.07,-168.92 88.59,-337.7 -11.71,-422.16 -69.142,-58.22 -175.564,-83.44 -279.269,-65.19 -50.33,8.86 -103.98,29.64 -151.318,67.17 z m 0,122.72 c 88.824,-168.59 266.472,-168.59 355.297,-93.79 88.83,74.79 88.83,224.39 0,373.98 -62.178,112.2 -222.061,224.4 -355.297,299.2 -133.237,-74.8 -293.12,-187 -355.297,-299.2 -88.824,-149.59 -88.824,-299.19 0,-373.98 88.825,-74.8 266.473,-74.8 355.297,93.79 z"
   style="fill:#1b1b1b"
   id="path137"
   inkscape:connector-curvature="0" />
            </g>
        </g>
    </g>
</svg>